<svg xmlns="http://www.w3.org/2000/svg" viewBox="2624 948.7 701.3 776.5">
  <path d="M2786.8 1725.2h175.3V1600h25v125.2h175.3v-275.5h-375.7v275.5zm350.6-25.1h-125.2v-25h125.2v25zm-325.6-225.4h325.6V1650h-125.2v-75.1h-75.1v75.1h-125.2v-175.3zm0 200.4H2937v25h-125.2v-25zM2912 1099h-50.1v25h25.1v162.8h-37.6v25.1h100.2v-25.1H2912zM2974.6 1311.9h125.2V1099h-125.2v212.9zm25.1-187.9h75.1v162.8h-75.1V1124z"/>
  <path d="M3282.1 1168.1l-21.9 12.1c9.9 18 18.1 37 24.4 56.6l-67.1 89.4-54.9 18.3V1119l47.4 59.6 108.6-77.3-98.6-120.6c-16.7-20.4-41.4-32.1-67.9-32.1h-102.2l-12.9 1.3.5 13c0 34.5-28.1 62.6-62.6 62.6s-62.6-28.1-62.6-62.5l.6-14.5h-115.3c-26.4 0-51.1 11.7-67.9 32.1l-98.6 120.6 108.2 77.3 47.7-59.7v225.6l-54.9-18.3-67.1-89.4c6.3-19.6 14.5-38.6 24.4-56.7l-21.9-12.1c-28.3 51.4-43.3 109.8-43.3 168.8 0 99.6 42.6 194.9 116.8 261.3l16.7-18.7c-43.4-38.8-75.1-88.3-92.7-142.7l63.9-85.3 58 19.3v53.6h375.7V1371l58-19.3 63.9 85.3c-17.4 53.7-48.5 102.6-91.1 141.2l16.8 18.5c73.1-66.4 115.1-161 115.1-259.7 0-59.1-15-117.5-43.2-168.9zm-625.6 238.1c-4.9-22.6-7.5-45.8-7.5-69.3 0-23.3 2.7-46.6 7.6-69.2l51.9 69.2-52 69.3zm625.6-309.7l-67.4 48-12.4-15.6 67.1-47.9 12.7 15.5zm-547.8 48l-67.1-48 12.7-15.6 67 47.8-12.6 15.8zm403.1-58v313.1h-325.6v-313.1h-31.1l-18.2 22.8-66.7-47.7 53-64.8c11.9-14.6 29.6-23 48.5-23h90.3c5.3 43.3 42.3 77 87 77s81.7-33.7 87-77h90.3c18.9 0 36.5 8.4 48.5 23l53.1 64.9-66.8 47.7-18.1-22.8h-31.2zm103.4 250.4l51.9-69.2c4.9 22.7 7.6 45.9 7.6 69.2 0 23.5-2.6 46.7-7.5 69.3l-52-69.3z"/>
</svg>