<svg xmlns="http://www.w3.org/2000/svg" viewBox="1629.9 228.6 1442.4 1209.8">
  <path d="M3002.5 461.2h-465.3v46.5h465.3c12.8 0 23.3 10.4 23.3 23.3v837.5c0 12.8-10.4 23.3-23.3 23.3H1699.7c-12.8 0-23.3-10.4-23.3-23.3V531c0-12.8 10.4-23.3 23.3-23.3H2165v-46.5h-465.3c-38.5 0-69.8 31.3-69.8 69.8v837.5c0 38.5 31.3 69.8 69.8 69.8h1302.8c38.5 0 69.8-31.3 69.8-69.8V531c0-38.4-31.3-69.8-69.8-69.8z"/>
  <path d="M1723 1252.2h511.8V647.4H1723v604.8zm46.5-558.3h418.8v511.8h-418.8V693.9z"/>
  <path d="M2061.2 969.2c34.7-25.4 57.3-66.3 57.3-112.5 0-77-62.6-139.6-139.6-139.6s-139.6 62.6-139.6 139.6c0 46.2 22.6 87.1 57.3 112.5-61.4 30.5-103.8 93.6-103.8 166.7v46.5H2165v-46.5c0-73-42.4-136.2-103.8-166.7zm-175.4-112.5c0-51.3 41.7-93.1 93.1-93.1s93.1 41.7 93.1 93.1c0 51.3-41.7 93.1-93.1 93.1s-93.1-41.7-93.1-93.1zm-46.5 279.2c0-77 62.6-139.6 139.6-139.6s139.6 62.6 139.6 139.6h-279.2zM2286.7 600.8h128.8c41.5 0 75.2-33.7 75.2-75.2v-297h-279.2v297.1c0 41.4 33.7 75.1 75.2 75.1zm-28.6-325.7h186.1v250.5c0 15.8-12.9 28.6-28.6 28.6h-128.8c-15.8 0-28.7-12.8-28.7-28.6V275.1z"/>
  <path d="M2351.1 438c38.5 0 69.8-31.3 69.8-69.8s-31.3-69.8-69.8-69.8-69.8 31.3-69.8 69.8 31.3 69.8 69.8 69.8zm0-93.1c12.8 0 23.3 10.4 23.3 23.3 0 12.8-10.4 23.3-23.3 23.3-12.8 0-23.3-10.4-23.3-23.3.1-12.8 10.5-23.3 23.3-23.3zM2304.6 740.4h674.7v46.5h-674.7zM2304.6 856.7h674.7v46.5h-674.7zM2304.6 973.1h674.7v46.5h-674.7zM2653.6 1089.4h325.7v46.5h-325.7z"/>
</svg>