<svg xmlns="http://www.w3.org/2000/svg" viewBox="2028.9 399 2046.9 2046.9">
  <path d="M3580.6 1587.5v-429.2c0-54.6-44.4-99-99-99h-165.1v-33c0-54.6-44.4-99-99-99-13 0-25.4 2.7-36.8 7.3-11.4-42.1-49.6-73.3-95.2-73.3-45.7 0-83.8 31.2-95.2 73.3-11.4-4.6-23.8-7.3-36.8-7.3-25.5 0-48.5 9.9-66 25.8-17.6-15.8-40.6-25.8-66-25.8-54.6 0-99 44.4-99 99v33h-99c-54.6 0-99 44.4-99 99v429.2c0 54.6 44.4 99 99 99h66v53.9c0 34.6 8.2 69.2 23.6 100.2l75.4 150.8v454.4h66v-470l-82.4-164.7c-10.9-21.9-16.7-46.3-16.7-70.7v-53.9h490.2l25.2-151c4.5-27.3 27.9-47.1 55.6-47.1 31.1 0 56.4 25.3 56.4 56.4v206.8c0 35.7-12.3 70.8-34.6 98.7l-97.4 121.8v473.8h66v-450.6l83-103.7c31.6-39.6 49.1-89.3 49.1-139.9v-65.1h33c54.3 0 98.7-44.5 98.7-99.1zm-396.2-561.2c0-18.2 14.8-33 33-33s33 14.8 33 33v33h-66v-33zm-132 0v-66c0-18.2 14.8-33 33-33s33 14.8 33 33v99h-66v-33zm-132.1 0c0-18.2 14.8-33 33-33s33 14.8 33 33v33h-66v-33zm-132 0c0-18.2 14.8-33 33-33s33 14.8 33 33v33h-66v-33zm726.3 561.2c0 18.2-14.8 33-33 33h-33v-75.7c0-67.5-54.9-122.4-122.4-122.4-60.1 0-110.8 43-120.7 102.3l-16 95.8h-566.3c-18.2 0-33-14.8-33-33v-330.1h924.4v330.1zm0-396.1h-924.4v-33c0-18.2 14.8-33 33-33h858.4c18.2 0 33 14.8 33 33v33z"/>
  <path d="M2755.2 1587.5c16.8 0 33.6-3.4 49.5-10 15.9 6.6 32.7 10 49.5 10 72.8 0 132.1-59.2 132.1-132.1 0-72.8-59.2-132.1-132.1-132.1-16.8 0-33.6 3.4-49.5 10-15.9-6.6-32.7-10-49.5-10-72.8 0-132.1 59.2-132.1 132.1.1 72.9 59.3 132.1 132.1 132.1zm0-198.1c11.3 0 22.4 3.1 32.9 9.2l16.6 9.7 16.6-9.7c10.5-6.1 21.6-9.2 32.9-9.2 36.4 0 66 29.6 66 66s-29.6 66-66 66c-11.3 0-22.4-3.1-32.9-9.2l-16.6-9.7-16.6 9.7c-10.5 6.1-21.6 9.2-32.9 9.2-36.4 0-66-29.6-66-66s29.6-66 66-66zM3052.4 729.1c91 0 165.1-74.1 165.1-165.1s-74.1-165.1-165.1-165.1S2887.3 473 2887.3 564c0 91.1 74.1 165.1 165.1 165.1zm0-264.1c54.6 0 99 44.4 99 99s-44.4 99-99 99-99-44.4-99-99c-.1-54.5 44.4-99 99-99zM2445.4 980.6c44.1 0 85.6-17.2 116.7-48.4 31.2-31.1 48.4-72.6 48.4-116.7 0-44.1-17.2-85.5-48.4-116.7-31.2-31.2-72.6-48.4-116.7-48.4s-85.6 17.2-116.7 48.4c-31.2 31.1-48.4 72.6-48.4 116.7 0 44.1 17.2 85.6 48.4 116.7 31.1 31.2 72.6 48.4 116.7 48.4zm-70-235.1c18.7-18.7 43.5-29 70-29s51.3 10.3 70 29c18.7 18.7 29 43.5 29 70s-10.3 51.3-29 70c-37.4 37.4-102.6 37.4-140 0-18.7-18.7-29-43.5-29-70s10.3-51.3 29-70zM2359.1 1422.5c0-91-74.1-165.1-165.1-165.1s-165.1 74.1-165.1 165.1 74.1 165.1 165.1 165.1c91-.1 165.1-74.1 165.1-165.1zm-165.1 99c-54.6 0-99-44.4-99-99s44.4-99 99-99 99 44.4 99 99-44.4 99-99 99zM2445.4 1864.4c-44.1 0-85.5 17.2-116.7 48.4-31.2 31.2-48.4 72.6-48.4 116.7s17.2 85.6 48.4 116.7c31.1 31.2 72.6 48.4 116.7 48.4s85.6-17.2 116.7-48.4c31.2-31.1 48.4-72.6 48.4-116.7s-17.2-85.6-48.4-116.7c-31.1-31.3-72.6-48.4-116.7-48.4zm70 235.1c-37.4 37.4-102.6 37.4-140 0-18.7-18.7-29-43.5-29-70s10.3-51.3 29-70c18.7-18.7 43.5-29 70-29s51.3 10.3 70 29c18.7 18.7 29 43.5 29 70 0 26.4-10.3 51.2-29 70zM3659.3 1864.4c-44.1 0-85.6 17.2-116.7 48.4-31.2 31.1-48.4 72.6-48.4 116.7s17.2 85.5 48.4 116.7c31.2 31.2 72.6 48.4 116.7 48.4s85.6-17.2 116.7-48.4c31.2-31.1 48.4-72.6 48.4-116.7s-17.2-85.6-48.4-116.7c-31.1-31.3-72.5-48.4-116.7-48.4zm70.1 235.1c-37.4 37.4-102.6 37.4-140 0-18.7-18.7-29-43.5-29-70s10.3-51.3 29-70c18.7-18.7 43.5-29 70-29s51.3 10.3 70 29c18.7 18.7 29 43.5 29 70 0 26.4-10.3 51.2-29 70zM3910.8 1257.4c-91 0-165.1 74.1-165.1 165.1s74.1 165.1 165.1 165.1 165.1-74.1 165.1-165.1c-.1-91.1-74.1-165.1-165.1-165.1zm0 264.1c-54.6 0-99-44.4-99-99s44.4-99 99-99 99 44.4 99 99-44.4 99-99 99zM3659.3 980.6c44.1 0 85.5-17.2 116.7-48.4 31.2-31.2 48.4-72.6 48.4-116.7 0-44.1-17.2-85.6-48.4-116.7-31.1-31.2-72.6-48.4-116.7-48.4s-85.6 17.2-116.7 48.4c-31.2 31.1-48.4 72.6-48.4 116.7 0 44.1 17.2 85.6 48.4 116.7 31.2 31.2 72.6 48.4 116.7 48.4zm-70-235.1c18.7-18.7 43.5-29 70-29s51.3 10.3 70 29c18.7 18.7 29 43.5 29 70s-10.3 51.3-29 70c-37.4 37.4-102.6 37.4-140 0-18.7-18.7-29-43.5-29-70s10.3-51.3 29-70zM2737.01312 725.63931l-29.5218-59.0304 66.00672-33.01074 29.5218 59.0304zM2336.62164 1152.72996l-62.6076-20.8956 23.36508-70.00668 62.6076 20.8956zM2296.51108 1767.42596l-33.00336-66.00672 59.0304-29.5152 33.00336 66.00672zM3768.26388 1692.08858l62.6076 20.8956-23.36508 70.00668-62.6076-20.8956zM3808.1487 1077.5407l33.00336 66.00672-59.0304 29.5152-33.00336-66.00672zM3392.00976 729.97155l-70.01406-23.33556 20.8692-62.6142 70.01406 23.33556z"/>
</svg>