<svg xmlns="http://www.w3.org/2000/svg" viewBox="2510.7 948.7 873.2 888.2">
  <path d="M3315.1 1435.8h-310.5v-35.2c27-18 49.9-40.6 68-66.3l82.7-9.7c93.7-11 164.5-90.5 164.5-185v-119.3c0-39.5-32.1-71.6-71.6-71.6h-28.7c-34.6 0-63.5 24.7-70.2 57.3h-30.1v-28.7h-343.8v28.7h-30.1c-6.6-32.6-35.6-57.3-70.2-57.3h-28.7c-39.5 0-71.6 32.1-71.6 71.6v119.3c0 94.4 70.7 173.9 164.5 185l82.7 9.7c18.1 25.7 41 48.2 68 66.3v35.2h-310.5l-68.8 171.9h64.1v229.2h744.9v-229.2h64.1l-68.7-171.9zM3119.2 1186v-151.4h57.3v-14.3c0-23.7 19.3-43 43-43h28.7c23.7 0 43 19.3 43 43v119.3c0 79.9-59.8 147.2-139.2 156.5l-60.8 7.1c18.1-35.6 28-75.5 28-117.2zm-376.5 110.1c-79.3-9.3-139.2-76.6-139.2-156.5v-119.3c0-23.7 19.3-43 43-43h28.7c23.7 0 43 19.3 43 43v14.3h57.3V1186c0 41.7 9.9 81.6 28 117.3l-60.8-7.2zm61.4-110.1v-180h286.5v180c0 79.6-40.3 152.4-107.9 194.6l-6.7 4.2v50.9h-57.3v-50.9l-6.7-4.2c-67.6-42.2-107.9-114.9-107.9-194.6zM2553 1579l45.8-114.6H3026.4l-45.8 114.6H2553zm480.3 229.2h-429.8v-200.6H3000l33.3-83.2v283.8zm257.8 0h-229.2v-283.8l33.3 83.2h195.9v200.6zM3114.6 1579l-45.8-114.6h227l45.8 114.6h-227z"/>
  <path d="M3026 1269.2l-20.2-100.9 55.4-55.5-75.5-18.9-38.5-77-38.5 77-75.5 18.9 55.4 55.5-20.2 100.9 78.7-59 78.9 59zm-136.6-140.8l39.1-9.8 18.8-37.6 18.8 37.6 39.1 9.8-30.5 30.5 8.5 42.4-35.9-26.9-35.9 26.9 8.5-42.4-30.5-30.5z"/>
</svg>